<svg width="729" height="364" viewBox="0 0 729 364" fill="none" xmlns="http://www.w3.org/2000/svg">
<path d="M173.503 0.444214V4.44299L63.9576 4.44299C47.1423 4.44299 31.0158 11.1228 19.1257 23.0129C7.23551 34.9031 0.555677 51.0296 0.555664 67.8448L0.555664 299.932C0.555643 308.258 2.19556 316.502 5.38178 324.194C8.56801 331.887 13.2381 338.876 19.1255 344.763C25.0129 350.651 32.0023 355.321 39.6945 358.507C47.3868 361.694 55.6313 363.333 63.9574 363.333L664.932 363.333C673.258 363.334 681.502 361.694 689.195 358.507C696.887 355.321 703.876 350.651 709.764 344.764C715.651 338.876 720.321 331.887 723.507 324.195C726.694 316.502 728.334 308.258 728.334 299.932L728.334 67.8451C728.334 51.0299 721.654 34.9034 709.764 23.0132C697.874 11.123 681.747 4.44318 664.932 4.44312L251.479 4.44312V0.444275L173.503 0.444214Z" fill="#E6E6E6"/>
<path d="M17.0001 65.4478L17.0001 95.7428C20.4157 94.3496 24.1216 93.8179 27.7912 94.1943C31.4607 94.5707 34.9815 95.8438 38.0431 97.9014C41.1048 99.959 43.6135 102.738 45.3482 105.993C47.0829 109.249 47.9903 112.881 47.9906 116.57L47.9906 249.529C47.9903 253.218 47.0829 256.85 45.3482 260.106C43.6135 263.362 41.1048 266.141 38.0431 268.198C34.9814 270.256 31.4607 271.529 27.7911 271.905C24.1215 272.282 20.4156 271.75 17 270.357L17 298.652C17 311.21 21.9884 323.253 30.8678 332.132C39.7472 341.012 51.7903 346 64.3477 346L664.44 346C670.658 346 676.815 344.775 682.56 342.396C688.304 340.016 693.524 336.529 697.92 332.132C702.317 327.735 705.805 322.516 708.184 316.771C710.563 311.027 711.788 304.87 711.788 298.652L711.788 65.4478C711.788 59.23 710.564 53.0731 708.184 47.3286C705.805 41.5841 702.317 36.3645 697.92 31.9678C693.524 27.5712 688.304 24.0836 682.56 21.7041C676.815 19.3246 670.658 18.1 664.44 18.1L64.3478 18.1C58.13 18.1 51.9731 19.3246 46.2286 21.7041C40.4841 24.0836 35.2645 27.5712 30.8679 31.9678C26.4712 36.3645 22.9836 41.5841 20.6042 47.3286C18.2247 53.0731 17.0001 59.23 17.0001 65.4478Z" fill="white"/>
<path d="M652.918 264.283L76.6709 264.283C73.8418 264.28 71.1295 263.154 69.129 261.154C67.1285 259.153 66.0033 256.441 66 253.612L66 110.671C66.0033 107.842 67.1285 105.13 69.129 103.129C71.1295 101.129 73.8418 100.003 76.6709 100L652.918 100C655.747 100.003 658.459 101.129 660.46 103.129C662.46 105.13 663.585 107.842 663.589 110.671L663.589 253.614C663.585 256.443 662.459 259.155 660.459 261.155C658.458 263.155 655.747 264.28 652.918 264.283ZM76.6709 104.268C74.9732 104.27 73.3456 104.945 72.1451 106.145C70.9447 107.346 70.2696 108.973 70.2679 110.671L70.2679 253.614C70.2696 255.312 70.9447 256.939 72.1451 258.14C73.3456 259.34 74.9732 260.015 76.6709 260.017L652.918 260.017C654.615 260.015 656.243 259.34 657.444 258.14C658.644 256.939 659.319 255.312 659.321 253.614L659.321 110.671C659.319 108.973 658.644 107.346 657.444 106.145C656.243 104.945 654.615 104.27 652.918 104.268L76.6709 104.268Z" fill="#E6E6E6"/>
<path d="M123.32 159.104C124.424 158.912 125.6 158.744 126.848 158.6C128.144 158.408 129.416 158.264 130.664 158.168C131.96 158.072 133.208 158 134.408 157.952C135.608 157.904 136.712 157.88 137.72 157.88C140.072 157.88 142.376 158.096 144.632 158.528C146.936 158.96 148.976 159.704 150.752 160.76C152.576 161.816 154.016 163.28 155.072 165.152C156.176 166.976 156.728 169.28 156.728 172.064C156.728 176.192 155.768 179.552 153.848 182.144C151.928 184.736 149.36 186.536 146.144 187.544L149.672 189.776L161.192 209H149.816L138.368 189.272L133.184 188.336V209H123.32V159.104ZM138.44 166.664C137.432 166.664 136.424 166.688 135.416 166.736C134.456 166.784 133.712 166.88 133.184 167.024V181.64H137.36C140.096 181.64 142.28 181.016 143.912 179.768C145.544 178.52 146.36 176.456 146.36 173.576C146.36 171.416 145.688 169.736 144.344 168.536C143 167.288 141.032 166.664 138.44 166.664ZM177.432 158.6H207.313V167.384H187.297V179.12H205.513V187.904H187.297V200.216H207.673V209H177.432V158.6ZM247.594 195.464C247.594 193.928 247.018 192.68 245.866 191.72C244.762 190.76 243.346 189.896 241.618 189.128C239.938 188.312 238.09 187.496 236.074 186.68C234.106 185.816 232.258 184.784 230.53 183.584C228.85 182.336 227.434 180.8 226.282 178.976C225.178 177.152 224.626 174.824 224.626 171.992C224.626 169.544 225.034 167.432 225.85 165.656C226.666 163.832 227.818 162.32 229.306 161.12C230.842 159.92 232.642 159.032 234.706 158.456C236.77 157.88 239.074 157.592 241.618 157.592C244.546 157.592 247.306 157.856 249.898 158.384C252.49 158.864 254.626 159.584 256.306 160.544L253.21 168.824C252.154 168.152 250.57 167.552 248.458 167.024C246.346 166.448 244.066 166.16 241.618 166.16C239.314 166.16 237.538 166.616 236.29 167.528C235.09 168.44 234.49 169.664 234.49 171.2C234.49 172.64 235.042 173.84 236.146 174.8C237.298 175.76 238.714 176.648 240.394 177.464C242.122 178.28 243.97 179.12 245.938 179.984C247.954 180.848 249.802 181.904 251.482 183.152C253.21 184.352 254.626 185.864 255.73 187.688C256.882 189.464 257.458 191.696 257.458 194.384C257.458 197.072 257.002 199.4 256.09 201.368C255.226 203.288 253.978 204.896 252.346 206.192C250.762 207.488 248.818 208.448 246.514 209.072C244.258 209.696 241.762 210.008 239.026 210.008C235.426 210.008 232.258 209.672 229.522 209C226.786 208.328 224.77 207.656 223.474 206.984L226.642 198.56C227.17 198.848 227.842 199.16 228.658 199.496C229.522 199.832 230.482 200.144 231.538 200.432C232.594 200.72 233.698 200.96 234.85 201.152C236.05 201.344 237.274 201.44 238.522 201.44C241.45 201.44 243.682 200.96 245.218 200C246.802 198.992 247.594 197.48 247.594 195.464ZM274.829 159.104C276.845 158.72 279.053 158.432 281.453 158.24C283.901 158 286.325 157.88 288.725 157.88C291.221 157.88 293.717 158.096 296.213 158.528C298.757 158.912 301.037 159.728 303.053 160.976C305.069 162.176 306.701 163.88 307.949 166.088C309.245 168.248 309.893 171.08 309.893 174.584C309.893 177.752 309.341 180.44 308.237 182.648C307.133 184.808 305.669 186.584 303.845 187.976C302.021 189.368 299.933 190.376 297.581 191C295.277 191.624 292.877 191.936 290.381 191.936C290.141 191.936 289.757 191.936 289.229 191.936C288.701 191.936 288.149 191.936 287.573 191.936C286.997 191.888 286.421 191.84 285.845 191.792C285.317 191.744 284.933 191.696 284.693 191.648V209H274.829V159.104ZM289.517 166.376C288.557 166.376 287.645 166.424 286.781 166.52C285.917 166.568 285.221 166.64 284.693 166.736V183.08C284.885 183.128 285.173 183.176 285.557 183.224C285.941 183.272 286.349 183.32 286.781 183.368C287.213 183.368 287.621 183.368 288.005 183.368C288.437 183.368 288.749 183.368 288.941 183.368C290.237 183.368 291.509 183.248 292.757 183.008C294.053 182.768 295.205 182.336 296.213 181.712C297.221 181.04 298.013 180.128 298.589 178.976C299.213 177.824 299.525 176.312 299.525 174.44C299.525 172.856 299.237 171.56 298.661 170.552C298.085 169.496 297.317 168.656 296.357 168.032C295.445 167.408 294.389 166.976 293.189 166.736C291.989 166.496 290.765 166.376 289.517 166.376ZM324.475 183.8C324.475 175.4 326.323 168.944 330.019 164.432C333.715 159.872 338.995 157.592 345.859 157.592C349.459 157.592 352.603 158.216 355.291 159.464C357.979 160.712 360.211 162.488 361.987 164.792C363.763 167.096 365.083 169.856 365.947 173.072C366.811 176.288 367.243 179.864 367.243 183.8C367.243 192.2 365.371 198.68 361.627 203.24C357.931 207.752 352.675 210.008 345.859 210.008C342.211 210.008 339.043 209.384 336.355 208.136C333.667 206.888 331.435 205.112 329.659 202.808C327.931 200.504 326.635 197.744 325.771 194.528C324.907 191.312 324.475 187.736 324.475 183.8ZM334.843 183.8C334.843 186.344 335.059 188.696 335.491 190.856C335.923 192.968 336.571 194.792 337.435 196.328C338.347 197.864 339.499 199.064 340.891 199.928C342.283 200.792 343.939 201.224 345.859 201.224C349.363 201.224 352.075 199.856 353.995 197.12C355.915 194.384 356.875 189.944 356.875 183.8C356.875 181.352 356.659 179.072 356.227 176.96C355.843 174.848 355.219 173 354.355 171.416C353.491 169.832 352.363 168.608 350.971 167.744C349.579 166.832 347.875 166.376 345.859 166.376C342.355 166.376 339.643 167.792 337.723 170.624C335.803 173.408 334.843 177.8 334.843 183.8ZM397.621 182.72L393.661 174.8H393.301L394.453 182.72V209H385.093V158.24H392.293L411.373 185.096L415.189 192.8H415.549L414.397 185.096V158.6H423.757V209.36H416.557L397.621 182.72ZM464.958 195.464C464.958 193.928 464.382 192.68 463.23 191.72C462.126 190.76 460.71 189.896 458.982 189.128C457.302 188.312 455.454 187.496 453.438 186.68C451.47 185.816 449.622 184.784 447.894 183.584C446.214 182.336 444.798 180.8 443.646 178.976C442.542 177.152 441.99 174.824 441.99 171.992C441.99 169.544 442.398 167.432 443.214 165.656C444.03 163.832 445.182 162.32 446.67 161.12C448.206 159.92 450.006 159.032 452.07 158.456C454.134 157.88 456.438 157.592 458.982 157.592C461.91 157.592 464.67 157.856 467.262 158.384C469.854 158.864 471.99 159.584 473.67 160.544L470.574 168.824C469.518 168.152 467.934 167.552 465.822 167.024C463.71 166.448 461.43 166.16 458.982 166.16C456.678 166.16 454.902 166.616 453.654 167.528C452.454 168.44 451.854 169.664 451.854 171.2C451.854 172.64 452.406 173.84 453.51 174.8C454.662 175.76 456.078 176.648 457.758 177.464C459.486 178.28 461.334 179.12 463.302 179.984C465.318 180.848 467.166 181.904 468.846 183.152C470.574 184.352 471.99 185.864 473.094 187.688C474.246 189.464 474.822 191.696 474.822 194.384C474.822 197.072 474.366 199.4 473.454 201.368C472.59 203.288 471.342 204.896 469.71 206.192C468.126 207.488 466.182 208.448 463.878 209.072C461.622 209.696 459.126 210.008 456.39 210.008C452.79 210.008 449.622 209.672 446.886 209C444.15 208.328 442.134 207.656 440.838 206.984L444.006 198.56C444.534 198.848 445.206 199.16 446.022 199.496C446.886 199.832 447.846 200.144 448.902 200.432C449.958 200.72 451.062 200.96 452.214 201.152C453.414 201.344 454.638 201.44 455.886 201.44C458.814 201.44 461.046 200.96 462.582 200C464.166 198.992 464.958 197.48 464.958 195.464ZM493.201 158.6H503.065V209H493.201V158.6ZM540.085 188.192L541.381 196.76H541.741L543.181 188.12L552.829 158.6H563.197L544.477 209.36H537.421L518.557 158.6H530.005L540.085 188.192ZM577.637 158.6H607.517V167.384H587.501V179.12H605.717V187.904H587.501V200.216H607.877V209H577.637V158.6Z" fill="#333333"/>
</svg>
