<svg width="728" height="363" viewBox="0 0 728 363" fill="none" xmlns="http://www.w3.org/2000/svg">
<path d="M172.947 0V3.99878L63.4019 3.99878C46.5867 3.99878 30.4602 10.6786 18.57 22.5687C6.67985 34.4589 1.3261e-05 50.5854 2.02091e-10 67.4006L2.01953e-10 299.487C-2.10113e-05 307.813 1.63989 316.058 4.82612 323.75C8.01234 331.442 12.6825 338.432 18.5699 344.319C24.4573 350.207 31.4466 354.877 39.1389 358.063C46.8311 361.249 55.0757 362.889 63.4017 362.889L664.376 362.889C672.702 362.889 680.947 361.249 688.639 358.063C696.331 354.877 703.321 350.207 709.208 344.319C715.095 338.432 719.766 331.443 722.952 323.75C726.138 316.058 727.778 307.814 727.778 299.487L727.778 67.4009C727.778 50.5857 721.098 34.4591 709.208 22.569C697.318 10.6788 681.191 3.99896 664.376 3.9989L250.923 3.9989V6.10352e-05L172.947 0Z" fill="#E6E6E6"/>
<path d="M16.4444 65.0034L16.4444 95.2983C19.8601 93.9052 23.5659 93.3734 27.2355 93.7498C30.9051 94.1262 34.4258 95.3993 37.4875 97.4569C40.5491 99.5145 43.0578 102.293 44.7925 105.549C46.5272 108.804 47.4347 112.437 47.4349 116.125L47.4349 249.085C47.4347 252.774 46.5272 256.406 44.7925 259.662C43.0578 262.917 40.5492 265.696 37.4875 267.754C34.4258 269.811 30.9051 271.084 27.2355 271.461C23.5658 271.837 19.86 271.305 16.4443 269.912L16.4443 298.208C16.4443 310.765 21.4327 322.808 30.3122 331.688C39.1916 340.567 51.2347 345.556 63.7921 345.556L663.885 345.556C670.102 345.556 676.259 344.331 682.004 341.951C687.748 339.572 692.968 336.084 697.365 331.688C701.761 327.291 705.249 322.071 707.628 316.327C710.008 310.582 711.233 304.426 711.233 298.208L711.233 65.0034C711.233 58.7856 710.008 52.6287 707.628 46.8842C705.249 41.1396 701.761 35.92 697.365 31.5234C692.968 27.1267 687.748 23.6391 682.004 21.2596C676.259 18.8802 670.103 17.6555 663.885 17.6555L63.7921 17.6555C57.5743 17.6555 51.4174 18.8802 45.6729 21.2596C39.9284 23.6391 34.7089 27.1267 30.3122 31.5234C25.9156 35.92 22.428 41.1396 20.0485 46.8842C17.6691 52.6287 16.4444 58.7856 16.4444 65.0034Z" fill="white"/>
<path d="M651.918 264.283L75.6709 264.283C72.8418 264.28 70.1295 263.154 68.129 261.154C66.1285 259.153 65.0033 256.441 65 253.612L65 110.671C65.0033 107.842 66.1285 105.13 68.129 103.129C70.1295 101.129 72.8418 100.003 75.6709 100L651.918 100C654.747 100.003 657.459 101.129 659.46 103.129C661.46 105.13 662.585 107.842 662.589 110.671L662.589 253.614C662.585 256.443 661.459 259.155 659.459 261.155C657.458 263.155 654.747 264.28 651.918 264.283ZM75.6709 104.268C73.9732 104.27 72.3456 104.945 71.1451 106.145C69.9447 107.346 69.2696 108.973 69.2679 110.671L69.2679 253.614C69.2696 255.312 69.9447 256.939 71.1451 258.14C72.3456 259.34 73.9732 260.015 75.6709 260.017L651.918 260.017C653.615 260.015 655.243 259.34 656.444 258.14C657.644 256.939 658.319 255.312 658.321 253.614L658.321 110.671C658.319 108.973 657.644 107.346 656.444 106.145C655.243 104.945 653.615 104.27 651.918 104.268L75.6709 104.268Z" fill="#E6E6E6"/>
<path d="M166.84 201.12L166.56 184.6H148.22C148.127 191.6 148.08 196.827 148.08 200.28L152.91 200.91C152.91 202.823 152.373 204.853 151.3 207H134.29L133.66 203.15C136.273 202.077 138.233 201.4 139.54 201.12C139.54 200.98 139.33 188.637 138.91 164.09L133.1 162.27L133.66 158H151.79C152.537 159.26 152.98 161.103 153.12 163.53C150.74 163.903 149.177 164.137 148.43 164.23C148.337 170.297 148.29 174.847 148.29 177.88H166.42L166.21 164.09L160.4 162.27L160.96 158H179.09C179.837 159.26 180.28 161.103 180.42 163.53C178.04 163.903 176.477 164.137 175.73 164.23L175.38 200.28L180.21 200.91C180.21 202.823 179.673 204.853 178.6 207H161.59L160.96 203.15C163.573 202.077 165.533 201.4 166.84 201.12ZM203.32 171.16C204.207 171.16 204.767 171.183 205 171.23C205 173.517 204.603 175.64 203.81 177.6C203.623 187.68 203.507 195.24 203.46 200.28L208.92 200.91C208.92 202.823 208.383 204.853 207.31 207H189.88L189.25 203.15C192.143 202.077 194.243 201.377 195.55 201.05L194.78 178.37C192.027 178.09 189.997 177.74 188.69 177.32C188.69 176.153 188.853 174.473 189.18 172.28C191.933 171.533 196.647 171.16 203.32 171.16ZM203.32 157.93C203.74 160.03 203.95 161.64 203.95 162.76C203.95 163.833 203.857 165.047 203.67 166.4C201.803 166.82 200.217 167.03 198.91 167.03C197.65 167.03 196.11 166.96 194.29 166.82C193.87 164.72 193.66 163.133 193.66 162.06C193.66 160.94 193.753 159.703 193.94 158.35C195.807 157.93 197.37 157.72 198.63 157.72C199.937 157.72 201.5 157.79 203.32 157.93ZM224.573 198.04C224.993 199.72 225.203 201.633 225.203 203.78C225.203 205.927 224.293 208.283 222.473 210.85C220.653 213.463 218.95 215.26 217.363 216.24C215.73 215.54 214.4 214.607 213.373 213.44C213.98 211.62 215.31 209.497 217.363 207.07L215.613 206.86C215.193 205.413 214.983 203.943 214.983 202.45C214.983 200.91 215.053 199.557 215.193 198.39C217.106 197.97 218.53 197.76 219.463 197.76C220.443 197.76 222.146 197.853 224.573 198.04ZM274.114 158C274.067 158 274.067 158.047 274.114 158.14C274.207 158.233 274.301 158.443 274.394 158.77C274.534 159.05 274.674 159.4 274.814 159.82C275.094 160.567 275.281 161.803 275.374 163.53C272.994 163.903 271.431 164.137 270.684 164.23L270.334 200.28L275.164 200.91C275.164 202.823 274.627 204.853 273.554 207H256.544L255.914 203.15C258.527 202.077 260.487 201.4 261.794 201.12C261.747 198.367 261.677 194.493 261.584 189.5C261.444 178.3 261.304 169.83 261.164 164.09L255.354 162.27L255.914 158H274.114ZM295.596 155.83C296.016 157.51 296.226 159.423 296.226 161.57C296.226 163.717 295.316 166.097 293.496 168.71C291.676 171.277 289.972 173.05 288.386 174.03C286.752 173.33 285.422 172.397 284.396 171.23C285.002 169.41 286.332 167.287 288.386 164.86L286.636 164.65C286.216 163.203 286.006 161.733 286.006 160.24C286.006 158.7 286.076 157.347 286.216 156.18C288.129 155.76 289.552 155.55 290.486 155.55C291.466 155.55 293.169 155.643 295.596 155.83ZM352.268 186.77C352.175 183.503 351.778 181.24 351.078 179.98C350.425 178.72 348.885 178.09 346.458 178.09C344.078 178.09 341.862 178.603 339.808 179.63C339.808 185.603 339.505 192.487 338.898 200.28L344.428 200.91C344.428 202.823 343.892 204.853 342.818 207H325.388L324.758 203.15C327.185 202.263 329.308 201.563 331.128 201.05L330.568 186.49C330.475 183.457 330.102 181.31 329.448 180.05C328.842 178.743 327.652 178.09 325.878 178.09C324.945 178.09 323.592 178.253 321.818 178.58C320.045 178.907 318.692 179.257 317.758 179.63C317.758 179.77 317.548 186.653 317.128 200.28L322.588 200.91C322.588 202.963 322.052 204.993 320.978 207H303.548L302.918 203.15C305.672 202.077 307.772 201.377 309.218 201.05L308.308 178.44C306.395 178.253 304.552 177.903 302.778 177.39L303.128 172.35C303.922 172.117 305.625 171.837 308.238 171.51C310.852 171.183 312.835 171.02 314.188 171.02C314.375 171.16 314.725 171.603 315.238 172.35C315.752 173.05 316.102 173.61 316.288 174.03C317.875 173.237 319.788 172.467 322.028 171.72C324.315 170.973 325.715 170.6 326.228 170.6C331.175 170.6 334.792 171.883 337.078 174.45C338.852 173.517 340.998 172.653 343.518 171.86C346.038 171.02 347.602 170.6 348.208 170.6C352.642 170.6 355.955 171.65 358.148 173.75C360.342 175.85 361.438 179.35 361.438 184.25C361.438 186.957 361.228 192.3 360.808 200.28L366.268 200.91C366.268 202.963 365.732 204.993 364.658 207H347.298L346.668 203.15C348.862 202.263 350.868 201.563 352.688 201.05C352.642 199.977 352.595 198.46 352.548 196.5C352.455 193.28 352.362 190.037 352.268 186.77ZM411.523 200.28C416.937 200.28 419.643 197.97 419.643 193.35C419.643 191.39 418.617 189.733 416.563 188.38C415.07 187.353 413.017 186.257 410.403 185.09C407.837 183.877 405.9 182.92 404.593 182.22C403.333 181.52 401.863 180.54 400.183 179.28C396.963 176.807 395.353 173.727 395.353 170.04C395.353 166.353 396.777 163.297 399.623 160.87C402.517 158.397 406.413 157.16 411.313 157.16C416.213 157.16 421.44 158.723 426.993 161.85C426.993 165.21 426.643 168.85 425.943 172.77C424.45 173.237 422.233 173.47 419.293 173.47L417.263 165.14C415.537 164.627 413.647 164.37 411.593 164.37C409.54 164.37 407.953 164.813 406.833 165.7C405.713 166.587 405.153 167.917 405.153 169.69C405.153 171.417 406.017 172.98 407.743 174.38C409.517 175.733 411.64 176.993 414.113 178.16C416.587 179.28 418.29 180.073 419.223 180.54C420.157 181.007 421.347 181.707 422.793 182.64C424.24 183.573 425.337 184.46 426.083 185.3C427.997 187.54 428.953 190.037 428.953 192.79C428.953 197.643 427.343 201.377 424.123 203.99C420.903 206.603 416.703 207.91 411.523 207.91C408.77 207.91 405.737 207.443 402.423 206.51C399.157 205.53 396.38 204.293 394.093 202.8C394.187 199.953 394.56 196.103 395.213 191.25C397.08 190.877 399.32 190.69 401.933 190.69L403.403 199.09C405.97 199.883 408.677 200.28 411.523 200.28ZM450.6 154.99L452.28 155.06C452.28 157.487 451.977 159.61 451.37 161.43C451.277 166.75 451.23 170.74 451.23 173.4C452.724 172.747 454.427 172.117 456.34 171.51C458.254 170.903 459.444 170.6 459.91 170.6C464.67 170.6 468.077 171.673 470.13 173.82C472.23 175.967 473.28 179.35 473.28 183.97C473.28 184.437 473.047 189.873 472.58 200.28L478.04 200.98C478.04 202.987 477.504 204.993 476.43 207H459L458.37 203.15C461.497 201.89 463.504 201.213 464.39 201.12C464.297 196.08 464.18 191.623 464.04 187.75C463.9 183.83 463.527 181.24 462.92 179.98C462.314 178.72 461.334 178.09 459.98 178.09C458.674 178.09 457.157 178.253 455.43 178.58C453.75 178.86 452.444 179.21 451.51 179.63L450.74 200.28L456.2 200.91C456.2 202.823 455.664 204.853 454.59 207H437.16L436.53 203.15C439.424 202.077 441.524 201.377 442.83 201.05L441.5 162.2C439.307 161.967 437.464 161.617 435.97 161.15C435.97 159.983 436.134 158.303 436.46 156.11C439.214 155.363 443.927 154.99 450.6 154.99ZM504.093 178.16C504 177.927 503.533 177.81 502.693 177.81C501.853 177.81 500.407 178.44 498.353 179.7C498.167 188.847 498.05 195.707 498.003 200.28L503.463 200.98C503.463 202.987 502.927 204.993 501.853 207H484.423L483.793 203.15C486.687 202.077 488.787 201.377 490.093 201.05L489.323 178.37C486.897 178.183 484.867 177.833 483.233 177.32L483.723 172.28C484.983 171.72 489.533 171.347 497.373 171.16C497.793 171.58 498.003 172.397 498.003 173.61C502.11 171.603 504.7 170.6 505.773 170.6C506.893 170.6 508.247 170.88 509.833 171.44C511.467 171.953 512.703 172.513 513.543 173.12V174.31C513.543 178.137 513.077 181.683 512.143 184.95C511.35 185.277 510.3 185.44 508.993 185.44C507.687 185.44 506.473 185.37 505.353 185.23C505.213 184.623 504.793 182.267 504.093 178.16ZM537.009 200.98C538.595 200.98 541.815 199.883 546.669 197.69C547.695 199.183 548.465 200.91 548.979 202.87C546.412 204.457 543.892 205.693 541.419 206.58C538.992 207.42 537.265 207.84 536.239 207.84C530.592 207.84 526.299 206.277 523.359 203.15C520.465 200.023 519.019 195.59 519.019 189.85C519.019 184.063 520.465 179.42 523.359 175.92C526.252 172.373 530.545 170.6 536.239 170.6C540.765 170.6 544.219 172.07 546.599 175.01C548.979 177.95 550.169 181.777 550.169 186.49C550.169 187.47 549.609 188.59 548.489 189.85L528.329 189.5C528.422 193.233 529.122 196.08 530.429 198.04C531.735 200 533.929 200.98 537.009 200.98ZM535.609 176.41C533.835 176.41 532.179 176.76 530.639 177.46C529.565 179.7 528.889 181.777 528.609 183.69C532.249 183.55 536.379 183.457 540.999 183.41C540.765 178.743 538.969 176.41 535.609 176.41ZM567.369 223.94C566.016 223.94 564.522 223.707 562.889 223.24C561.256 222.773 559.506 222.073 557.639 221.14C557.919 215.773 558.176 212.577 558.409 211.55C560.182 211.083 561.629 210.85 562.749 210.85C563.916 210.85 564.662 210.873 564.989 210.92L567.229 217.92L567.859 217.85C568.932 217.71 570.029 216.427 571.149 214C572.269 211.573 573.086 209.24 573.599 207H570.659L560.299 178.16L554.839 177.53C554.839 175.617 555.376 173.587 556.449 171.44H573.879L574.509 175.29C572.596 176.177 570.986 176.783 569.679 177.11L574.999 193.7L575.629 196.71H577.169L583.119 177.11C581.532 176.83 579.572 176.223 577.239 175.29L577.869 171.44H595.299C596.372 173.587 596.909 175.617 596.909 177.53C595.089 177.81 593.269 177.997 591.449 178.09C587.249 190.41 583.959 199.93 581.579 206.65C579.246 213.37 577.122 217.92 575.209 220.3C573.296 222.727 570.682 223.94 567.369 223.94Z" fill="#333333"/>
</svg>
