<svg width="728" height="363" viewBox="0 0 728 363" fill="none" xmlns="http://www.w3.org/2000/svg">
<path d="M172.947 0V3.99878L63.4019 3.99878C46.5867 3.99878 30.4602 10.6786 18.57 22.5687C6.67985 34.4589 1.3261e-05 50.5854 2.02091e-10 67.4006L2.01953e-10 299.487C-2.10113e-05 307.813 1.63989 316.058 4.82612 323.75C8.01234 331.442 12.6825 338.432 18.5699 344.319C24.4573 350.207 31.4466 354.877 39.1389 358.063C46.8311 361.249 55.0757 362.889 63.4017 362.889L664.376 362.889C672.702 362.889 680.947 361.249 688.639 358.063C696.331 354.877 703.321 350.207 709.208 344.319C715.095 338.432 719.766 331.443 722.952 323.75C726.138 316.058 727.778 307.814 727.778 299.487L727.778 67.4009C727.778 50.5857 721.098 34.4591 709.208 22.569C697.318 10.6788 681.191 3.99896 664.376 3.9989L250.923 3.9989V6.10352e-05L172.947 0Z" fill="#E6E6E6"/>
<path d="M16.4444 65.0034L16.4444 95.2983C19.8601 93.9052 23.5659 93.3734 27.2355 93.7498C30.9051 94.1262 34.4258 95.3993 37.4875 97.4569C40.5491 99.5145 43.0578 102.293 44.7925 105.549C46.5272 108.804 47.4347 112.437 47.4349 116.125L47.4349 249.085C47.4347 252.774 46.5272 256.406 44.7925 259.662C43.0578 262.917 40.5492 265.696 37.4875 267.754C34.4258 269.811 30.9051 271.084 27.2355 271.461C23.5658 271.837 19.86 271.305 16.4443 269.912L16.4443 298.208C16.4443 310.765 21.4327 322.808 30.3122 331.688C39.1916 340.567 51.2347 345.556 63.7921 345.556L663.885 345.556C670.102 345.556 676.259 344.331 682.004 341.951C687.748 339.572 692.968 336.084 697.365 331.688C701.761 327.291 705.249 322.071 707.628 316.327C710.008 310.582 711.233 304.426 711.233 298.208L711.233 65.0034C711.233 58.7856 710.008 52.6287 707.628 46.8842C705.249 41.1396 701.761 35.92 697.365 31.5234C692.968 27.1267 687.748 23.6391 682.004 21.2596C676.259 18.8802 670.103 17.6555 663.885 17.6555L63.7921 17.6555C57.5743 17.6555 51.4174 18.8802 45.6729 21.2596C39.9284 23.6391 34.7089 27.1267 30.3122 31.5234C25.9156 35.92 22.428 41.1396 20.0485 46.8842C17.6691 52.6287 16.4444 58.7856 16.4444 65.0034Z" fill="white"/>
<path d="M651.918 264.283L75.6709 264.283C72.8418 264.28 70.1295 263.154 68.129 261.154C66.1285 259.153 65.0033 256.441 65 253.612L65 110.671C65.0033 107.842 66.1285 105.13 68.129 103.129C70.1295 101.129 72.8418 100.003 75.6709 100L651.918 100C654.747 100.003 657.459 101.129 659.46 103.129C661.46 105.13 662.585 107.842 662.589 110.671L662.589 253.614C662.585 256.443 661.459 259.155 659.459 261.155C657.458 263.155 654.747 264.28 651.918 264.283ZM75.6709 104.268C73.9732 104.27 72.3456 104.945 71.1451 106.145C69.9447 107.346 69.2696 108.973 69.2679 110.671L69.2679 253.614C69.2696 255.312 69.9447 256.939 71.1451 258.14C72.3456 259.34 73.9732 260.015 75.6709 260.017L651.918 260.017C653.615 260.015 655.243 259.34 656.444 258.14C657.644 256.939 658.319 255.312 658.321 253.614L658.321 110.671C658.319 108.973 657.644 107.346 656.444 106.145C655.243 104.945 653.615 104.27 651.918 104.268L75.6709 104.268Z" fill="#E6E6E6"/>
<path d="M145.136 182.744C146.757 182.744 148.165 182.541 149.36 182.136C150.576 181.731 151.568 181.176 152.336 180.472C153.125 179.747 153.712 178.893 154.096 177.912C154.48 176.931 154.672 175.853 154.672 174.68C154.672 172.333 153.893 170.531 152.336 169.272C150.8 168.013 148.443 167.384 145.264 167.384H139.76V182.744H145.136ZM167.28 207H159.504C158.032 207 156.965 206.424 156.304 205.272L146.576 190.456C146.213 189.901 145.808 189.507 145.36 189.272C144.933 189.037 144.293 188.92 143.44 188.92H139.76V207H131.152V160.728H145.264C148.4 160.728 151.088 161.059 153.328 161.72C155.589 162.36 157.435 163.267 158.864 164.44C160.315 165.613 161.381 167.021 162.064 168.664C162.747 170.285 163.088 172.077 163.088 174.04C163.088 175.597 162.853 177.069 162.384 178.456C161.936 179.843 161.275 181.101 160.4 182.232C159.547 183.363 158.48 184.355 157.2 185.208C155.941 186.061 154.501 186.733 152.88 187.224C153.435 187.544 153.947 187.928 154.416 188.376C154.885 188.803 155.312 189.315 155.696 189.912L167.28 207ZM190.517 167.576V180.408H206.709V187.032H190.517V200.12H211.061V207H181.877V160.728H211.061V167.576H190.517ZM252.929 169.144C252.673 169.592 252.396 169.923 252.097 170.136C251.82 170.328 251.468 170.424 251.041 170.424C250.593 170.424 250.103 170.264 249.569 169.944C249.057 169.603 248.439 169.229 247.713 168.824C246.988 168.419 246.135 168.056 245.153 167.736C244.193 167.395 243.052 167.224 241.729 167.224C240.535 167.224 239.489 167.373 238.593 167.672C237.697 167.949 236.94 168.344 236.321 168.856C235.724 169.368 235.276 169.987 234.977 170.712C234.679 171.416 234.529 172.195 234.529 173.048C234.529 174.136 234.828 175.043 235.425 175.768C236.044 176.493 236.855 177.112 237.857 177.624C238.86 178.136 240.001 178.595 241.281 179C242.561 179.405 243.873 179.843 245.217 180.312C246.561 180.76 247.873 181.293 249.153 181.912C250.433 182.509 251.575 183.277 252.577 184.216C253.58 185.133 254.38 186.264 254.977 187.608C255.596 188.952 255.905 190.584 255.905 192.504C255.905 194.595 255.543 196.557 254.817 198.392C254.113 200.205 253.068 201.795 251.681 203.16C250.316 204.504 248.641 205.571 246.657 206.36C244.673 207.128 242.401 207.512 239.841 207.512C238.369 207.512 236.919 207.363 235.489 207.064C234.06 206.787 232.684 206.381 231.361 205.848C230.06 205.315 228.833 204.675 227.681 203.928C226.529 203.181 225.505 202.349 224.609 201.432L227.137 197.304C227.351 197.005 227.628 196.76 227.969 196.568C228.311 196.355 228.673 196.248 229.057 196.248C229.591 196.248 230.167 196.472 230.785 196.92C231.404 197.347 232.14 197.827 232.993 198.36C233.847 198.893 234.839 199.384 235.969 199.832C237.121 200.259 238.497 200.472 240.097 200.472C242.551 200.472 244.449 199.896 245.793 198.744C247.137 197.571 247.809 195.896 247.809 193.72C247.809 192.504 247.5 191.512 246.881 190.744C246.284 189.976 245.484 189.336 244.481 188.824C243.479 188.291 242.337 187.843 241.057 187.48C239.777 187.117 238.476 186.723 237.153 186.296C235.831 185.869 234.529 185.357 233.249 184.76C231.969 184.163 230.828 183.384 229.825 182.424C228.823 181.464 228.012 180.269 227.393 178.84C226.796 177.389 226.497 175.608 226.497 173.496C226.497 171.811 226.828 170.168 227.489 168.568C228.172 166.968 229.153 165.549 230.433 164.312C231.713 163.075 233.292 162.083 235.169 161.336C237.047 160.589 239.201 160.216 241.633 160.216C244.364 160.216 246.881 160.643 249.185 161.496C251.489 162.349 253.452 163.544 255.073 165.08L252.929 169.144ZM288.055 183.992C289.633 183.992 291.009 183.8 292.183 183.416C293.356 183.011 294.327 182.445 295.095 181.72C295.884 180.973 296.471 180.077 296.855 179.032C297.239 177.965 297.431 176.781 297.431 175.48C297.431 174.243 297.239 173.123 296.855 172.12C296.471 171.117 295.895 170.264 295.127 169.56C294.359 168.856 293.388 168.323 292.215 167.96C291.041 167.576 289.655 167.384 288.055 167.384H281.623V183.992H288.055ZM288.055 160.728C291.148 160.728 293.825 161.091 296.087 161.816C298.348 162.541 300.215 163.555 301.687 164.856C303.159 166.157 304.247 167.715 304.951 169.528C305.676 171.341 306.039 173.325 306.039 175.48C306.039 177.72 305.665 179.779 304.919 181.656C304.172 183.512 303.052 185.112 301.559 186.456C300.065 187.8 298.188 188.845 295.927 189.592C293.687 190.339 291.063 190.712 288.055 190.712H281.623V207H273.015V160.728H288.055ZM366.367 183.864C366.367 187.256 365.802 190.403 364.671 193.304C363.562 196.184 361.983 198.68 359.935 200.792C357.887 202.904 355.423 204.557 352.543 205.752C349.663 206.925 346.463 207.512 342.943 207.512C339.445 207.512 336.255 206.925 333.375 205.752C330.495 204.557 328.021 202.904 325.951 200.792C323.903 198.68 322.314 196.184 321.183 193.304C320.053 190.403 319.487 187.256 319.487 183.864C319.487 180.472 320.053 177.336 321.183 174.456C322.314 171.555 323.903 169.048 325.951 166.936C328.021 164.824 330.495 163.181 333.375 162.008C336.255 160.813 339.445 160.216 342.943 160.216C345.29 160.216 347.498 160.493 349.567 161.048C351.637 161.581 353.535 162.349 355.263 163.352C356.991 164.333 358.538 165.539 359.903 166.968C361.29 168.376 362.463 169.955 363.423 171.704C364.383 173.453 365.109 175.352 365.599 177.4C366.111 179.448 366.367 181.603 366.367 183.864ZM357.567 183.864C357.567 181.325 357.226 179.053 356.543 177.048C355.861 175.021 354.89 173.304 353.631 171.896C352.373 170.488 350.837 169.411 349.023 168.664C347.231 167.917 345.205 167.544 342.943 167.544C340.682 167.544 338.645 167.917 336.831 168.664C335.039 169.411 333.503 170.488 332.223 171.896C330.965 173.304 329.994 175.021 329.311 177.048C328.629 179.053 328.287 181.325 328.287 183.864C328.287 186.403 328.629 188.685 329.311 190.712C329.994 192.717 330.965 194.424 332.223 195.832C333.503 197.219 335.039 198.285 336.831 199.032C338.645 199.779 340.682 200.152 342.943 200.152C345.205 200.152 347.231 199.779 349.023 199.032C350.837 198.285 352.373 197.219 353.631 195.832C354.89 194.424 355.861 192.717 356.543 190.712C357.226 188.685 357.567 186.403 357.567 183.864ZM422.535 160.728V207H418.119C417.436 207 416.86 206.893 416.391 206.68C415.943 206.445 415.506 206.061 415.079 205.528L390.919 174.68C391.047 176.088 391.111 177.389 391.111 178.584V207H383.527V160.728H388.039C388.402 160.728 388.711 160.749 388.967 160.792C389.244 160.813 389.479 160.877 389.671 160.984C389.884 161.069 390.087 161.208 390.279 161.4C390.471 161.571 390.684 161.805 390.919 162.104L415.175 193.08C415.111 192.333 415.058 191.597 415.015 190.872C414.972 190.147 414.951 189.475 414.951 188.856V160.728H422.535ZM467.08 169.144C466.824 169.592 466.546 169.923 466.248 170.136C465.97 170.328 465.618 170.424 465.192 170.424C464.744 170.424 464.253 170.264 463.72 169.944C463.208 169.603 462.589 169.229 461.864 168.824C461.138 168.419 460.285 168.056 459.304 167.736C458.344 167.395 457.202 167.224 455.88 167.224C454.685 167.224 453.64 167.373 452.744 167.672C451.848 167.949 451.09 168.344 450.472 168.856C449.874 169.368 449.426 169.987 449.128 170.712C448.829 171.416 448.68 172.195 448.68 173.048C448.68 174.136 448.978 175.043 449.576 175.768C450.194 176.493 451.005 177.112 452.008 177.624C453.01 178.136 454.152 178.595 455.432 179C456.712 179.405 458.024 179.843 459.368 180.312C460.712 180.76 462.024 181.293 463.304 181.912C464.584 182.509 465.725 183.277 466.728 184.216C467.73 185.133 468.53 186.264 469.128 187.608C469.746 188.952 470.056 190.584 470.056 192.504C470.056 194.595 469.693 196.557 468.968 198.392C468.264 200.205 467.218 201.795 465.832 203.16C464.466 204.504 462.792 205.571 460.808 206.36C458.824 207.128 456.552 207.512 453.992 207.512C452.52 207.512 451.069 207.363 449.64 207.064C448.21 206.787 446.834 206.381 445.512 205.848C444.21 205.315 442.984 204.675 441.832 203.928C440.68 203.181 439.656 202.349 438.76 201.432L441.288 197.304C441.501 197.005 441.778 196.76 442.12 196.568C442.461 196.355 442.824 196.248 443.208 196.248C443.741 196.248 444.317 196.472 444.936 196.92C445.554 197.347 446.29 197.827 447.144 198.36C447.997 198.893 448.989 199.384 450.12 199.832C451.272 200.259 452.648 200.472 454.248 200.472C456.701 200.472 458.6 199.896 459.944 198.744C461.288 197.571 461.96 195.896 461.96 193.72C461.96 192.504 461.65 191.512 461.032 190.744C460.434 189.976 459.634 189.336 458.632 188.824C457.629 188.291 456.488 187.843 455.208 187.48C453.928 187.117 452.626 186.723 451.304 186.296C449.981 185.869 448.68 185.357 447.4 184.76C446.12 184.163 444.978 183.384 443.976 182.424C442.973 181.464 442.162 180.269 441.544 178.84C440.946 177.389 440.648 175.608 440.648 173.496C440.648 171.811 440.978 170.168 441.64 168.568C442.322 166.968 443.304 165.549 444.584 164.312C445.864 163.075 447.442 162.083 449.32 161.336C451.197 160.589 453.352 160.216 455.784 160.216C458.514 160.216 461.032 160.643 463.336 161.496C465.64 162.349 467.602 163.544 469.224 165.08L467.08 169.144ZM495.805 207H487.165V160.728H495.805V207ZM555.412 160.728L536.724 207H528.948L510.26 160.728H517.172C517.919 160.728 518.527 160.909 518.996 161.272C519.466 161.635 519.818 162.104 520.052 162.68L530.964 190.904C531.327 191.821 531.668 192.835 531.988 193.944C532.33 195.032 532.65 196.173 532.948 197.368C533.204 196.173 533.482 195.032 533.78 193.944C534.079 192.835 534.41 191.821 534.772 190.904L545.62 162.68C545.791 162.189 546.122 161.741 546.612 161.336C547.124 160.931 547.743 160.728 548.468 160.728H555.412ZM578.442 167.576V180.408H594.634V187.032H578.442V200.12H598.986V207H569.802V160.728H598.986V167.576H578.442Z" fill="#333333"/>
</svg>
